<svg width="951" height="265" viewBox="0 0 951 265" fill="none" xmlns="http://www.w3.org/2000/svg">
<path d="M116.6 263.9C109.9 263 104.9 261.9 90.2 258.1C80.2 255.5 59.6 243.9 48.2 234.4C32.5 221.4 17.9 201.3 9.1 180.5C6.2 173.6 1.8 152.4 0.599996 139.2C-0.400004 128.9 2.5 106.6 6.7 92C8.2 86.7 11.8 78.9 19.1 65.2C27.8 48.8 47.3 29.7 66.1 19C78.8 11.7 88.6 7.09999 91.2 6.99999C92.1 6.99999 93.2 6.49999 93.5 5.89999C93.9 5.29999 94.8 5.09999 95.5 5.39999C96.2 5.59999 100.2 4.99999 104.3 3.99999C117.9 0.599992 132.1 -0.500008 144 0.999992C149.8 1.69999 157.6 2.99999 161.4 3.99999C165.2 4.99999 168.8 5.59999 169.4 5.39999C172.5 4.19999 200.7 18.3 211.6 26.5C222.4 34.6 231.3 43.2 229.9 44.1C229.1 44.6 226.7 43.2 223.6 40.3C220.8 37.8 217.4 35.3 216 34.7C214.6 34.1 211.6 32.3 209.3 30.8C202.2 26 189.1 20.1 184.5 19.5C183.4 19.4 177.8 18.1 172 16.7C153 12.1 136.1 12.3 118 17.2C113.9 18.3 109.4 19.4 108 19.5C104 19.8 92.9 25.3 80.7 32.9C72.6 38 66.5 42.8 58.4 50.7C52.3 56.7 46.6 62.9 45.7 64.5C44.9 66.2 41.6 71.3 38.6 75.9C35.5 80.6 33 85.1 33 85.9C33 86.8 31.5 91.3 29.7 96C23.5 111.8 20.4 129.5 21.4 143.4C22.6 158.5 24.5 166.7 31.7 186.5C38.8 205.9 61.7 233.3 78.5 242.3C89.4 248.1 111.3 251.5 123 249.1C143 245.1 150.2 241.6 163.1 229.2C170.1 222.6 172.5 219.4 175.6 213.2C179.4 205.4 180.9 197.7 179.6 192.6C178.6 188.4 172 182.5 166.7 181.1C161.1 179.5 154.5 180.9 150.7 184.4C147.1 187.7 145.4 186.4 145.1 180.1C144.5 167.8 131.4 156.9 117 156.6C107.6 156.5 98.1 161.1 92.3 168.6C89.3 172.6 86.8 184.6 88.1 189.3C89.2 193.6 86.4 192.7 84 188C80.6 181.3 79 173 78.9 162C78.8 150 80.4 142.3 85.5 131.6C87.3 127.7 89.1 123.6 89.4 122.4C90.5 118.9 105.1 104.7 113.2 99.3C117.4 96.5 123 93.4 125.7 92.5C128.3 91.6 131.2 90.5 132 90.2C134.5 89.3 142 88.7 152.5 88.6C167.8 88.5 171.9 89.1 179.5 92.3C186.4 95.2 189 96.8 199.8 104.4L205.1 108.1L208.8 105.2C218.1 98.1 235.7 89 240.2 89C241.5 89 248.4 88.7 255.5 88.2C262.7 87.8 268.9 87.7 269.5 88.2C270 88.6 271.9 89 273.8 89C277.7 89 291.1 95 298.7 100.1C304.8 104.2 311.4 110.3 315.6 115.6C321 122.4 328.2 135.1 328.5 138.4C328.7 140.1 329.6 145.8 330.5 151C332 159.1 332 161.7 331 169C330.3 173.7 329.5 179.3 329.3 181.4C328.9 184.6 323.7 195 322.5 195C322.4 195 322.5 192.1 322.8 188.5C324.1 172.3 314.9 160.9 297.3 156.9C292.5 155.8 291.6 155.9 284.5 158.5C280.3 160 275.5 162.4 273.9 163.8C270.1 167 266.2 174.6 264.8 181.7L263.7 187.2L260.3 183.2C258 180.4 255.2 178.5 251.2 177C244.5 174.5 241.2 174.9 234.8 178.9C229.8 182.1 228.2 184.9 218.4 207.5C212.6 220.9 210.4 224.2 200.4 234.7C190.9 244.5 172.7 256.8 166.5 257.5C166 257.6 164.8 257.9 164 258.3C163.2 258.6 158.2 260 153 261.4C142 264.2 126.5 265.2 116.6 263.9Z" fill="white"/>
<path d="M384.8 237.3L384.5 212.5L374.7 212.2L364.9 211.9L365.2 209.2L365.5 206.5L385.5 206.3C409.4 206.1 411 206.3 411 209.6C411 212 410.9 212 401 212H391V237V262H388H385L384.8 237.3Z" fill="white"/>
<path d="M419.2 234.3L419.5 206.5L427.5 206.2C437.7 205.9 449.5 207.5 453.3 209.8C455 210.7 457.6 213.2 459.3 215.2C461.9 218.4 462.3 219.7 462.3 225.3C462.3 230.4 461.7 232.4 459.6 235.8C458.2 238.1 455.8 240.7 454.3 241.7C452.7 242.6 451.3 243.5 451.1 243.6C450.6 244 459.7 257.5 461.5 259C464 261.1 463.2 262.1 459.3 261.8C456 261.5 455.1 260.8 452.2 256.5C450.4 253.8 447.8 250 446.4 248.3L443.9 245H434.5H425V253.5V262H422H419L419.2 234.3ZM449.7 237.5C455.7 234 457.8 224.2 453.8 218.4C450.8 214.1 444.2 212 433.4 212H425V225.3C425 232.7 425.3 239 425.8 239.4C426.2 239.9 431 240 436.5 239.8C444.1 239.5 447.3 239 449.7 237.5Z" fill="white"/>
<path d="M469 261.5C469 261.2 470.3 258.4 471.9 255.2C473.5 252.1 475.8 247 477 244C479.2 238.6 492.2 211 493.8 208C494.3 207.2 495.9 206.4 497.3 206.2C499.7 205.9 500.3 206.7 504 214C506.2 218.4 509 224.4 510.1 227.3C511.2 230.2 514.8 238.1 518 245C525.8 261.7 525.9 262 522.3 262C519.7 262 519 261.3 516 255C514.1 251.2 512.1 248 511.6 248C511 248 504.7 247.8 497.6 247.6C490.5 247.4 484.1 247.4 483.4 247.7C482.6 248 480.6 251.3 478.9 255.1C475.9 261.6 475.5 262 472.4 262C470.5 262 469 261.8 469 261.5ZM508.4 241.5C509.3 239.2 502.3 222.6 497.7 216C496.3 213.9 496 213.8 496 215.4C496 216.4 493.5 222.4 490.5 228.6C487.5 234.9 485 240.7 485 241.5C485 243.7 507.5 243.7 508.4 241.5Z" fill="white"/>
<path d="M541.4 252.4C539 247.2 537 242.6 537 242.3C537 241.6 522.7 210 521.3 207.7C520.6 206.5 523.8 205.7 526.5 206.4C527.9 206.8 529 207.6 529 208.3C529 208.9 530.7 212.7 532.6 216.5C534.6 220.4 537 225.8 538 228.6C540.5 235.7 548.1 252 549 252C549.4 252 552.5 246 555.9 238.8C562.6 224.5 562.9 223.8 565.5 217C568.5 209 570.8 206 574.1 206C575.7 206 577 206.2 577 206.4C577 206.6 574.8 211.4 572.2 217.1C569.5 222.8 566.5 229.8 565.4 232.5C564.4 235.3 561.7 241.3 559.4 246C557.2 250.7 554.7 256.2 553.9 258.3C552.8 261.6 552.2 262 549.2 262C546 262 545.8 261.7 541.4 252.4Z" fill="white"/>
<path d="M585.2 234.3L585.5 206.5L603.5 206.7C613.4 206.9 621.8 207 622.3 207C622.7 207 623 208.1 623 209.5V212H607H591V219.9C591 224.3 591.3 228.5 591.6 229.4C592.1 230.8 594.4 231 606 231C613.7 231 620.1 231.3 620.3 231.8C620.6 232.2 620.4 233.5 619.9 234.8C619 237 618.7 237.1 606.1 236.9C599 236.9 592.7 237.1 592.1 237.5C590.9 238.2 590.6 252.7 591.6 255.4C592.1 256.8 594.5 257 608.1 257H624V259.5V262H604.5H585L585.2 234.3Z" fill="white"/>
<path d="M635.2 234.3L635.5 206.5H638H640.5L640.8 231.8L641 257H656.5H672V259.5V262H653.5H635L635.2 234.3Z" fill="white"/>
<path d="M398.3 183.8C397.7 183.1 397 180.6 396.6 178.2C396.3 175.8 392.8 164.6 389 153.3C385.1 142 382 131.8 382 130.6C382 127.8 370.3 93 368.6 90.8C367.9 89.8 365.2 88.2 362.7 87.1C358.2 85.2 358 84.9 358 81V77H381.5H405V81C405 84.9 404.8 85.2 400.3 87.1C394.5 89.6 394.8 89.2 395.9 92.1C396.3 93.4 397 96.4 397.3 98.7C397.7 101 401.1 112.7 405.1 124.7C409 136.7 412.4 148.2 412.6 150.2C413.1 155 415.8 161.6 416.8 160.4C418.3 158.8 422.9 146.6 423.9 141.9C424.5 139.4 426.3 134.2 428.1 130.4C429.8 126.6 432.3 120.6 433.6 117.1L436 110.8L433 101C430 91.4 428.1 88.6 423.3 86.1C421.5 85.2 421 84.1 421 81V77H443.5H466V81C466 84.9 466 84.9 460.4 86.6L454.8 88.2L455.3 91.9C455.5 93.9 458.6 104.1 462 114.5C465.4 125 468.3 134.9 468.5 136.6C468.9 140.3 474.8 159.1 475.9 160.3C476.7 161.1 480.4 150.8 480.3 148C480.2 147.2 483.3 136.8 487.1 125C493.4 105.3 496 95.6 496.4 90.6C496.5 89 495.4 88.3 491.5 87.1C484.6 84.9 484 84.4 484 80.4V77H504.5H525V80.9C525 84.6 524.8 84.8 520.7 85.9C514.6 87.4 511.2 90.3 510.5 94.8C510.2 96.8 507 106.2 503.5 115.6C499.9 125 496.6 134.9 496.1 137.6C495.5 140.4 493.7 146.2 492 150.6C486.8 163.6 483.8 172.2 482.6 177.5L481.5 182.5L470.6 183.8C464.6 184.6 459.4 184.8 459 184.3C458 183.2 453.3 169.2 452.5 165C451.1 157.4 442.4 132.1 441.3 132C440.6 132 439.7 133.2 439.4 134.8C439 136.3 435.9 143.9 432.4 151.6C428.9 159.4 426 166.8 425.9 168.1C425.9 169.4 424.9 173.2 423.7 176.5L421.5 182.5L413.5 183.7C403 185.2 399.5 185.3 398.3 183.8Z" fill="white"/>
<path d="M547.8 183.6C533.9 178.6 526.7 169.2 524 152.4C521 134.2 531.6 113.9 548.5 105.3C551.7 103.6 554.6 103.2 563.4 103.1C573.3 102.9 574.6 103.2 578.5 105.4C588.1 111.1 593.3 120.2 592.8 130.7L592.5 137.5L568.5 138L544.5 138.5L544.8 143C545.7 157.6 555.1 168 567.6 168C571.6 168 580.7 165.3 584.7 162.9L587.8 160.9L589.9 163.9L592 166.8L586.9 171.8C576 182.5 559.1 187.6 547.8 183.6ZM568.8 129.4C571.4 128.2 572 127.3 572 124.7C572 117.7 564.3 111 558.2 112.5C552.3 114 547.5 120 545.5 128.2C544.8 130.8 545 130.9 549.2 131.2C556.7 131.7 565.4 130.9 568.8 129.4Z" fill="white"/>
<path d="M626.7 182.5C622 180.9 618.6 177.9 616.5 173.4C615.2 170.6 614.9 165.8 615 144.3C615 130.1 615 118 615 117.5C615 116.9 613.3 116.6 611 116.8C607.2 117.2 607 117.1 607 114.3C607 112.7 606.5 110.9 606 110.4C605.2 109.6 606.2 108.5 608.9 106.7C611.1 105.2 613.2 104 613.5 104C613.8 104 618.6 100.4 624.1 96C630.6 90.7 634.9 88 636.5 88H639.1L638.4 95.5C637.5 105.5 637.8 105.8 648.1 104.9C655.8 104.2 660.3 104.5 662.2 105.6C663.5 106.4 663.1 113.5 661.6 115.5C660.4 117.2 658.8 117.4 648.9 117.5H637.5L637 140C636.4 165.5 636.9 168.2 642.4 170C645.6 171 654.5 169.4 659 167C661.8 165.5 662.4 165.7 663.7 168.7C664.9 171.1 664.7 171.6 661.9 174.2C656.7 179.2 643.5 184 635 183.9C632.5 183.9 628.8 183.3 626.7 182.5Z" fill="white"/>
<path d="M859.4 182.2C855.9 179.9 852 175.4 852 173.4C852 171.2 850.4 171.7 847.3 174.9C842.5 179.7 836.3 182.2 827.9 182.7C818.9 183.3 815 181.9 810.6 176.4C807.3 172.2 806.2 166 807.9 160.7C809.4 156.4 819.9 146.3 823.8 145.4C825.3 145.1 829.4 143.8 833 142.5C836.6 141.2 841.9 139.3 844.8 138.3L850 136.5V130.2C850 123.1 848.5 119.4 844.1 115.7C839.8 112.1 835.9 111.5 831.4 113.6L827.8 115.3L828.5 120.4C829.9 130.1 829.8 130.4 825.9 132.3C821 134.6 814.5 134.8 812.1 132.6C807.5 128.4 808.8 120.4 815.3 113.8C820.3 108.7 831.3 103 836.3 103C838.3 103 840.1 102.6 840.5 102.1C841.1 101 852 101.1 852 102.3C852 102.7 853.6 103 855.6 103C860.4 103 865 106 868.6 111.2L871.5 115.5V142.1C871.5 163.2 871.8 169 872.9 170.3C874.4 172.2 880 172.6 881.7 170.9C882.5 170.1 883.1 170.4 883.9 171.9C885.4 174.7 884.2 176.9 879 180.5C873.5 184.3 864.1 185.1 859.4 182.2ZM846.1 168.7L849.5 166.4L849.8 155.8C850.1 145.2 850 145.1 847.8 145.4C845.5 145.6 842.3 146.8 836.1 149.8C832.3 151.7 829 156.3 829 159.7C829 162.3 830.8 166.8 832.8 169.3C835 171.8 841.9 171.6 846.1 168.7Z" fill="white"/>
<path d="M916.6 182.8C910.9 182 905.4 178 902.7 172.9C901.2 169.9 901 166.5 901 143L901.1 116.5L897.8 116.4C895.2 116.4 894.4 115.9 893.9 113.9C892.5 109 893 108.2 900.3 103.4C904.2 100.7 910 96.1 913.1 93.2C917.3 89.3 919.7 87.8 922.4 87.5L926.2 87L925.4 96C924.9 103.3 925 105 926.1 105C926.9 105 931.3 104.6 935.9 104C948.8 102.5 952.8 105.8 948.3 114L946.5 117.1L935.4 116.8L924.3 116.5L923.6 129C921.6 169.4 923.7 173.9 942 167.9C948.7 165.7 949.5 165.9 950.5 170.2C951.1 172.4 950.8 173.1 949.4 173.6C948.3 174 946.6 175.1 945.5 176.1C940.4 180.6 925.4 184.1 916.6 182.8Z" fill="white"/>
<path d="M699 179.4C699 174.6 700.4 173 704.6 173C706.3 173 708.8 172.1 710.1 171.1L712.5 169.2L712.8 130.5C713.1 86.7 713.6 89.1 705.1 86.6C700.7 85.4 700.5 85.1 700.2 81.3L699.9 77.3L715.2 76.7C723.6 76.3 736.8 75.7 744.5 75.4C756 74.9 759.5 75.1 764.2 76.4C780.9 81.3 790.2 95.9 784.2 107.6C781 113.8 777.4 118.1 773 121L768.9 123.7L774.4 126.8C787.1 134 790.9 140 790.5 152C790.1 163.5 786.2 170.6 776.9 176.6C769.9 181 763.6 181.9 730.3 182.6L699 183.3V179.4ZM758.3 170.2C761.9 166.8 765 157.9 765 151.1C765 143.8 761 136.8 755.3 134.4C753.2 133.5 750.7 132.4 749.8 131.9C748.8 131.4 745.6 131 742.6 131C737.5 131 737.2 131.2 736.7 133.8C735.8 138.2 735.9 171.5 736.7 172.4C737.1 172.8 741.6 173 746.7 172.8C754.6 172.5 756.2 172.2 758.3 170.2ZM756.7 119.8C759.5 117.6 761 112.3 761 105.4C761 96 758.8 91.4 753 88.5C747 85.5 741.8 84.5 739.1 85.9C737.1 87 737 87.8 737 104.7V122.3L746.1 121.7C751.2 121.4 755.8 120.6 756.7 119.8Z" fill="white"/>
<path d="M199.5 90.3C198.1 88.8 197 87.3 197 86.9C197 86.6 195 82.6 192.5 78C184.7 63.5 187.3 61.5 200.5 72C202.6 73.6 204.6 75 205 75C205.4 75 208.8 72.8 212.6 70C216.4 67.3 219.8 65 220.3 65C222.5 65 221.9 68.9 218.6 75.4C216.6 79.4 215 83.2 215 83.9C215 85.4 212 90.1 210 91.7C207.3 93.9 202.3 93.2 199.5 90.3Z" fill="white"/>
</svg>
